<svg xmlns="http://www.w3.org/2000/svg" width="59.575" height="41.543" viewBox="0 0 59.575 41.543">
  <g id="Group_10" data-name="Group 10" transform="translate(-811 -1035.464)">
    <rect id="Rectangle_15" data-name="Rectangle 15" width="34.668" height="38.707" rx="17.334" transform="translate(823.453 1035.464)" fill="#2f2e2e"/>
    <path id="Path_7" data-name="Path 7" d="M45.772-15.2c19.146,0,30.37,4.516,30.37,7.152s-8.42,5.662-27.567,5.662S16.738-5.41,16.738-8.047,26.625-15.2,45.772-15.2Z" transform="translate(794.348 1079.392)" fill="#2f2e2e"/>
    <path id="Path_8" data-name="Path 8" d="M45.772-15.2c19.146,0,30.37,5.541,30.37,8.776S67.721.525,48.575.525,16.738-3.188,16.738-6.423,26.625-15.2,45.772-15.2Z" transform="translate(794.348 1074.896)" fill="#2f2e2e"/>
    <rect id="Rectangle_16" data-name="Rectangle 16" width="59.575" height="5.854" rx="2.927" transform="translate(811 1066.093)" fill="#2f2e2e"/>
    <path id="Path_9" data-name="Path 9" d="M45.772-15.2c19.146,0,30.37,4.435,30.37,7.024s-8.42,5.561-27.567,5.561S16.738-5.585,16.738-8.174,26.625-15.2,45.772-15.2Z" transform="translate(794.348 1074.896)" fill="#383737"/>
    <rect id="Rectangle_17" data-name="Rectangle 17" width="34.668" height="9.424" rx="1" transform="translate(823.453 1058.015)" fill="#262424"/>
    <g id="Group_6" data-name="Group 6" transform="translate(858.125 1038.058) rotate(13)">
      <ellipse id="Ellipse_4" data-name="Ellipse 4" cx="3.198" cy="13.463" rx="3.198" ry="13.463" fill="#fff"/>
      <path id="Path_10" data-name="Path 10" d="M0,0,3.163,3.174,5.654,0" transform="translate(0.371 8.655)" fill="none" stroke="#707070" stroke-width="1" opacity="0.046"/>
      <path id="Path_11" data-name="Path 11" d="M0,0,3.163,3.174,5.654,0" transform="translate(0.371 9.664)" fill="none" stroke="#707070" stroke-width="1" opacity="0.046"/>
      <path id="Path_12" data-name="Path 12" d="M0,0,3.163,3.174,5.654,0" transform="translate(0.371 7.645)" fill="none" stroke="#707070" stroke-width="1" opacity="0.046"/>
      <path id="Path_13" data-name="Path 13" d="M0,0,3.163,3.174,5.654,0" transform="translate(0.371 11.792)" fill="none" stroke="#707070" stroke-width="1" opacity="0.046"/>
      <path id="Path_14" data-name="Path 14" d="M0,0,3.163,3.174,5.654,0" transform="translate(0.371 12.886)" fill="none" stroke="#707070" stroke-width="1" opacity="0.046"/>
      <path id="Path_15" data-name="Path 15" d="M0,0,3.163,3.174,5.654,0" transform="translate(0.371 10.782)" fill="none" stroke="#707070" stroke-width="1" opacity="0.046"/>
      <path id="Path_16" data-name="Path 16" d="M0,0,3.163,3.174,5.654,0" transform="translate(0.371 13.896)" fill="none" stroke="#707070" stroke-width="1" opacity="0.046"/>
      <path id="Path_17" data-name="Path 17" d="M0,0,3.163,3.174,5.654,0" transform="translate(0.371 14.906)" fill="none" stroke="#707070" stroke-width="1" opacity="0.046"/>
      <path id="Path_18" data-name="Path 18" d="M0,0,3.163,3.174,5.654,0" transform="translate(0.371 12.886)" fill="none" stroke="#707070" stroke-width="1" opacity="0.046"/>
      <path id="Path_19" data-name="Path 19" d="M0,0,3.163,3.174,5.654,0" transform="translate(0.371 17.033)" fill="none" stroke="#707070" stroke-width="1" opacity="0.046"/>
      <path id="Path_20" data-name="Path 20" d="M0,0,3.163,3.174,5.654,0" transform="translate(0.371 18.043)" fill="none" stroke="#707070" stroke-width="1" opacity="0.046"/>
      <path id="Path_21" data-name="Path 21" d="M0,0,3.163,3.174,5.654,0" transform="translate(0.371 16.024)" fill="none" stroke="#707070" stroke-width="1" opacity="0.046"/>
      <path id="Path_22" data-name="Path 22" d="M0,0,3.163,3.174,5.654,0" transform="translate(0.371 19.63)" fill="none" stroke="#707070" stroke-width="1" opacity="0.046"/>
      <path id="Path_23" data-name="Path 23" d="M0,0,3.163,3.174,5.654,0" transform="translate(0.371 20.64)" fill="none" stroke="#707070" stroke-width="1" opacity="0.046"/>
      <path id="Path_24" data-name="Path 24" d="M0,0,3.163,3.174,5.654,0" transform="translate(0.371 18.62)" fill="none" stroke="#707070" stroke-width="1" opacity="0.046"/>
      <path id="Path_25" data-name="Path 25" d="M0,0,3.163,3.174,5.654,0" transform="translate(0.371 22.767)" fill="none" stroke="#707070" stroke-width="1" opacity="0.046"/>
      <path id="Path_26" data-name="Path 26" d="M0,0,3.163,3.174,5.654,0" transform="translate(0.371 23.777)" fill="none" stroke="#707070" stroke-width="1" opacity="0.046"/>
      <path id="Path_27" data-name="Path 27" d="M0,0,3.163,3.174,5.654,0" transform="translate(0.371 21.758)" fill="none" stroke="#707070" stroke-width="1" opacity="0.046"/>
      <path id="Path_28" data-name="Path 28" d="M0,0,3.163,3.174,5.654,0" transform="translate(0.371 8.655)" fill="none" stroke="#707070" stroke-width="1" opacity="0.046"/>
      <path id="Path_29" data-name="Path 29" d="M0,0,3.163,3.174,5.654,0" transform="translate(0.371 9.664)" fill="none" stroke="#707070" stroke-width="1" opacity="0.046"/>
      <path id="Path_30" data-name="Path 30" d="M0,0,3.163,3.174,5.654,0" transform="translate(0.371 7.645)" fill="none" stroke="#707070" stroke-width="1" opacity="0.046"/>
      <path id="Path_31" data-name="Path 31" d="M0,0,3.163,3.174,5.654,0" transform="translate(0.371 10.782)" fill="none" stroke="#707070" stroke-width="1" opacity="0.046"/>
      <path id="Path_32" data-name="Path 32" d="M0,0,3.163,3.174,5.654,0" transform="translate(0.371 22.767)" fill="none" stroke="#707070" stroke-width="1" opacity="0.046"/>
      <path id="Path_33" data-name="Path 33" d="M0,0,3.163,3.174,5.654,0" transform="translate(0.371 23.777)" fill="none" stroke="#707070" stroke-width="1" opacity="0.046"/>
      <path id="Path_34" data-name="Path 34" d="M0,0,3.163,3.174,5.654,0" transform="translate(0.371 21.758)" fill="none" stroke="#707070" stroke-width="1" opacity="0.046"/>
      <path id="Path_35" data-name="Path 35" d="M0,0,3.163,3.174,5.654,0" transform="translate(0.371 6.563)" fill="none" stroke="#707070" stroke-width="1" opacity="0.046"/>
      <path id="Path_36" data-name="Path 36" d="M0,0,3.163,3.174,5.654,0" transform="translate(0.371 5.553)" fill="none" stroke="#707070" stroke-width="1" opacity="0.046"/>
      <path id="Path_37" data-name="Path 37" d="M0,0,3.163,3.174,5.654,0" transform="translate(0.371 6.563)" fill="none" stroke="#707070" stroke-width="1" opacity="0.046"/>
      <path id="Path_38" data-name="Path 38" d="M0,0,3.163,3.174,5.654,0" transform="translate(0.371 5.553)" fill="none" stroke="#707070" stroke-width="1" opacity="0.046"/>
      <path id="Path_39" data-name="Path 39" d="M0,0,2.515,3.174,4.5,0" transform="translate(0.98 4.471)" fill="none" stroke="#707070" stroke-width="1" opacity="0.046"/>
      <path id="Path_40" data-name="Path 40" d="M0,0,2.515,3.174,4.5,0" transform="translate(0.98 3.462)" fill="none" stroke="#707070" stroke-width="1" opacity="0.046"/>
      <path id="Path_41" data-name="Path 41" d="M0,0,2.515,3.174,4.5,0" transform="translate(0.98 4.471)" fill="none" stroke="#707070" stroke-width="1" opacity="0.046"/>
      <path id="Path_42" data-name="Path 42" d="M0,0,2.515,3.174,4.5,0" transform="translate(0.98 3.462)" fill="none" stroke="#707070" stroke-width="1" opacity="0.046"/>
      <path id="Path_43" data-name="Path 43" d="M0,0,1.914,3.174,3.421,0" transform="translate(1.394 2.452)" fill="none" stroke="#707070" stroke-width="1" opacity="0.046"/>
      <path id="Path_45" data-name="Path 45" d="M0,0,1.914,3.174,3.421,0" transform="translate(1.394 2.452)" fill="none" stroke="#707070" stroke-width="1" opacity="0.046"/>
      <path id="Path_46" data-name="Path 46" d="M0,0,1.914,3.174,3.421,0" transform="translate(1.394 1.298)" fill="none" stroke="#707070" stroke-width="1" opacity="0.046"/>
    </g>
    <g id="Group_4" data-name="Group 4" transform="translate(846.894 1059.698)">
      <ellipse id="Ellipse_1" data-name="Ellipse 1" cx="3.198" cy="2.356" rx="3.198" ry="2.356" transform="translate(4.159 1.759)" fill="#8a4eb5"/>
      <g id="Group_1" data-name="Group 1">
        <path id="Path_5" data-name="Path 5" d="M1967.377,3931.747l8.318,3.405-8.318,3.739Z" transform="translate(-1967.377 -3931.747)" fill="#8a4eb5"/>
        <path id="Path_6" data-name="Path 6" d="M1975.7,3931.747l-8.318,3.405,8.318,3.739Z" transform="translate(-1960.982 -3931.747)" fill="#8a4eb5"/>
      </g>
    </g>
    <g id="Group_5" data-name="Group 5" transform="translate(846.557 1061.044)" opacity="0.122">
      <ellipse id="Ellipse_1-2" data-name="Ellipse 1" cx="3.198" cy="2.356" rx="3.198" ry="2.356" transform="translate(4.159 1.759)" fill="#2f2e2e"/>
      <g id="Group_1-2" data-name="Group 1">
        <path id="Path_5-2" data-name="Path 5" d="M1967.377,3931.747l8.318,3.405-8.318,3.739Z" transform="translate(-1967.377 -3931.747)" fill="#2f2e2e"/>
        <path id="Path_6-2" data-name="Path 6" d="M1975.7,3931.747l-8.318,3.405,8.318,3.739Z" transform="translate(-1960.982 -3931.747)" fill="#2f2e2e"/>
      </g>
    </g>
  </g>
</svg>
